<svg width="20" height="21" viewBox="0 0 20 21" fill="none" xmlns="http://www.w3.org/2000/svg">
<path d="M11.5788 1.08274C11.138 0.708091 10.5784 0.50238 10 0.50238C9.42156 0.50238 8.86197 0.708091 8.42125 1.08274L1.10875 7.29799C0.839592 7.52681 0.623387 7.81139 0.475108 8.13203C0.326829 8.45268 0.25002 8.80172 0.25 9.15499V18.875C0.25 19.3723 0.447544 19.8492 0.799175 20.2008C1.15081 20.5525 1.62772 20.75 2.125 20.75H5.875C6.37228 20.75 6.8492 20.5525 7.20083 20.2008C7.55246 19.8492 7.75 19.3723 7.75 18.875V13.625C7.75 13.5255 7.78951 13.4302 7.85984 13.3598C7.93016 13.2895 8.02554 13.25 8.125 13.25H11.5C11.5995 13.25 11.6948 13.2895 11.7652 13.3598C11.8355 13.4302 11.875 13.5255 11.875 13.625V18.875C11.875 19.3723 12.0725 19.8492 12.4242 20.2008C12.7758 20.5525 13.2527 20.75 13.75 20.75H17.875C18.3723 20.75 18.8492 20.5525 19.2008 20.2008C19.5525 19.8492 19.75 19.3723 19.75 18.875V9.15499C19.75 8.80172 19.6732 8.45268 19.5249 8.13203C19.3766 7.81139 19.1604 7.52681 18.8913 7.29799L11.5788 1.08274V1.08274Z" fill="#979191"/>
</svg>
