<svg width="19" height="20" viewBox="0 0 19 20" fill="none" xmlns="http://www.w3.org/2000/svg">
<path d="M16.8755 5.87451L15.3855 7.36451L12.3855 4.3645L13.8755 2.87451C14.2955 2.45451 14.8355 2.25451 15.3755 2.25451C15.9155 2.25451 16.4555 2.45451 16.8755 2.87451C17.7055 3.70451 17.7055 5.04451 16.8755 5.87451ZM14.6855 8.07551L3.87551 18.8755C3.04551 19.7055 1.70551 19.7055 0.875505 18.8755C0.0455051 18.0455 0.0455051 16.7055 0.875505 15.8755L11.6855 5.0755L14.6855 8.07551ZM7.3255 1.87551L7.7355 0.485505C7.7755 0.355505 7.73551 0.215505 7.64551 0.115505C7.55551 0.0155052 7.39551 -0.0244948 7.26551 0.0155052L5.8755 0.425505L4.48551 0.0155052C4.35551 -0.0244948 4.2155 0.0155052 4.1155 0.105505C4.0155 0.205505 3.98551 0.345505 4.02551 0.475505L4.42551 1.87551L4.0155 3.26551C3.9755 3.39551 4.0155 3.53551 4.1055 3.63551C4.2055 3.73551 4.3455 3.76551 4.4755 3.72551L5.8755 3.32551L7.26551 3.73551C7.30551 3.74551 7.3355 3.75551 7.3755 3.75551C7.4755 3.75551 7.56551 3.71551 7.64551 3.64551C7.74551 3.54551 7.7755 3.40551 7.7355 3.27551L7.3255 1.87551ZM3.32551 7.8755L3.73551 6.4855C3.77551 6.3555 3.73551 6.2155 3.64551 6.1155C3.54551 6.0155 3.40551 5.98551 3.27551 6.02551L1.87551 6.42551L0.485505 6.0155C0.355505 5.9755 0.215505 6.0155 0.115505 6.1055C0.0155051 6.2055 -0.0144948 6.34551 0.0255052 6.47551L0.425505 7.8755L0.0155052 9.26551C-0.0244948 9.39551 0.0155051 9.53551 0.105505 9.63551C0.205505 9.73551 0.345505 9.76551 0.475505 9.72551L1.8655 9.31551L3.25551 9.72551C3.28551 9.73551 3.3255 9.73551 3.3655 9.73551C3.4655 9.73551 3.55551 9.69551 3.63551 9.62551C3.73551 9.52551 3.76551 9.38551 3.72551 9.25551L3.32551 7.8755ZM18.3255 12.8755L18.7355 11.4855C18.7755 11.3555 18.7355 11.2155 18.6455 11.1155C18.5455 11.0155 18.4055 10.9855 18.2755 11.0255L16.8855 11.4355L15.4955 11.0255C15.3655 10.9855 15.2255 11.0255 15.1255 11.1155C15.0255 11.2155 14.9955 11.3555 15.0355 11.4855L15.4455 12.8755L15.0355 14.2655C14.9955 14.3955 15.0355 14.5355 15.1255 14.6355C15.2255 14.7355 15.3655 14.7655 15.4955 14.7255L16.8855 14.3155L18.2755 14.7255C18.3055 14.7355 18.3455 14.7355 18.3855 14.7355C18.4855 14.7355 18.5755 14.6955 18.6555 14.6255C18.7555 14.5255 18.7855 14.3855 18.7455 14.2555L18.3255 12.8755Z" fill="#9CA3AF"/>
</svg>
