<svg width="77" height="77" viewBox="0 0 77 77" fill="none" xmlns="http://www.w3.org/2000/svg">
<rect width="77" height="77" rx="8" fill="#6A5ACD"/>
<rect width="77" height="77" rx="8" fill="white" fill-opacity="0.15"/>
<path d="M26.3333 36H49.6667C50.5507 36 51.3986 36.3512 52.0237 36.9763C52.6488 37.6014 53 38.4493 53 39.3333V62.6667C53 63.5507 52.6488 64.3986 52.0237 65.0237C51.3986 65.6488 50.5507 66 49.6667 66H26.3333C25.4493 66 24.6014 65.6488 23.9763 65.0237C23.3512 64.3986 23 63.5507 23 62.6667V39.3333C23 38.4493 23.3512 37.6014 23.9763 36.9763C24.6014 36.3512 25.4493 36 26.3333 36M38 47.6667C37.1159 47.6667 36.2681 48.0179 35.643 48.643C35.0179 49.2681 34.6667 50.1159 34.6667 51C34.6667 51.8841 35.0179 52.7319 35.643 53.357C36.2681 53.9821 37.1159 54.3333 38 54.3333C38.8841 54.3333 39.7319 53.9821 40.357 53.357C40.9821 52.7319 41.3333 51.8841 41.3333 51C41.3333 50.1159 40.9821 49.2681 40.357 48.643C39.7319 48.0179 38.8841 47.6667 38 47.6667ZM29.6667 39.3333C28.7826 39.3333 27.9348 39.6845 27.3096 40.3096C26.6845 40.9348 26.3333 41.7826 26.3333 42.6667C26.3333 43.5507 26.6845 44.3986 27.3096 45.0237C27.9348 45.6488 28.7826 46 29.6667 46C30.5507 46 31.3986 45.6488 32.0237 45.0237C32.6488 44.3986 33 43.5507 33 42.6667C33 41.7826 32.6488 40.9348 32.0237 40.3096C31.3986 39.6845 30.5507 39.3333 29.6667 39.3333M46.3333 56C45.4493 56 44.6014 56.3512 43.9763 56.9763C43.3512 57.6014 43 58.4493 43 59.3333C43 60.2174 43.3512 61.0652 43.9763 61.6904C44.6014 62.3155 45.4493 62.6667 46.3333 62.6667C47.2174 62.6667 48.0652 62.3155 48.6904 61.6904C49.3155 61.0652 49.6667 60.2174 49.6667 59.3333C49.6667 58.4493 49.3155 57.6014 48.6904 56.9763C48.0652 56.3512 47.2174 56 46.3333 56Z" fill="white" fill-opacity="0.78"/>
<path d="M8.784 23.065C8.186 23.065 7.614 22.961 7.068 22.753C6.53067 22.5363 6.054 22.2243 5.638 21.817C5.222 21.401 4.89267 20.9027 4.65 20.322C4.416 19.7327 4.299 19.061 4.299 18.307C4.299 17.657 4.42033 17.0547 4.663 16.5C4.90567 15.9453 5.23933 15.46 5.664 15.044C6.09733 14.6193 6.6 14.29 7.172 14.056C7.744 13.822 8.36367 13.705 9.031 13.705C9.863 13.705 10.617 13.887 11.293 14.251C11.969 14.6063 12.4717 15.096 12.801 15.72L10.916 17.163C10.734 16.799 10.461 16.5087 10.097 16.292C9.733 16.0667 9.34733 15.954 8.94 15.954C8.63667 15.954 8.35933 16.0147 8.108 16.136C7.85667 16.2573 7.63567 16.4263 7.445 16.643C7.263 16.8597 7.12 17.1197 7.016 17.423C6.92067 17.7177 6.873 18.0427 6.873 18.398C6.873 18.762 6.925 19.0913 7.029 19.386C7.133 19.6807 7.276 19.9363 7.458 20.153C7.64867 20.361 7.874 20.5257 8.134 20.647C8.394 20.7597 8.68433 20.816 9.005 20.816C9.41233 20.816 9.80233 20.7163 10.175 20.517C10.5477 20.309 10.8857 20.0187 11.189 19.646V22.116C10.4957 22.7487 9.694 23.065 8.784 23.065ZM11.059 19.906H9.356V18.086H13.152V23H11.059V19.906ZM20.9814 20.79V23H14.4034V13.77H20.8644V15.98H16.9384V17.28H20.2924V19.334H16.9384V20.79H20.9814ZM24.6952 18.463V23H22.1602V13.77H24.1362L27.8412 18.463V13.77H30.3762V23H28.3612L24.6952 18.463ZM38.539 20.79V23H31.961V13.77H38.422V15.98H34.496V17.28H37.85V19.334H34.496V20.79H38.539ZM39.7178 23V13.77H43.9558C44.4065 13.77 44.8225 13.861 45.2038 14.043C45.5851 14.225 45.9145 14.472 46.1918 14.784C46.4691 15.0873 46.6815 15.4297 46.8288 15.811C46.9848 16.1923 47.0628 16.578 47.0628 16.968C47.0628 17.3233 47.0108 17.6657 46.9068 17.995C46.8028 18.3243 46.6511 18.6277 46.4518 18.905C46.2525 19.1737 46.0141 19.4077 45.7368 19.607L47.6868 23H44.9048L43.2798 20.166H42.2528V23H39.7178ZM42.2528 17.956H43.8518C43.9558 17.956 44.0555 17.917 44.1508 17.839C44.2461 17.761 44.3241 17.6483 44.3848 17.501C44.4541 17.3537 44.4888 17.176 44.4888 16.968C44.4888 16.7513 44.4498 16.5737 44.3718 16.435C44.3025 16.2877 44.2115 16.175 44.0988 16.097C43.9948 16.019 43.8908 15.98 43.7868 15.98H42.2528V17.956ZM50.6223 13.77H53.4563L56.3943 23H53.8203L53.2613 21.193H50.8043L50.2583 23H47.6713L50.6223 13.77ZM52.8583 19.503L52.0393 16.253L51.1813 19.503H52.8583ZM57.1612 23V13.77H59.6962V20.79H63.8822V23H57.1612ZM66.8977 13.77H69.7317L72.6697 23H70.0957L69.5367 21.193H67.0797L66.5337 23H63.9467L66.8977 13.77ZM69.1337 19.503L68.3147 16.253L67.4567 19.503H69.1337Z" fill="white"/>
</svg>
