<svg width="77" height="77" viewBox="0 0 77 77" fill="none" xmlns="http://www.w3.org/2000/svg">
<rect width="77" height="77" rx="8" fill="#6A5ACD"/>
<rect width="77" height="77" rx="8" fill="white" fill-opacity="0.15"/>
<path d="M46.25 65V57.25H54V53.375H46.25V45.625H54V41.75H46.25V34H42.375V41.75H34.625V34H30.75V41.75H23V45.625H30.75V53.375H23V57.25H30.75V65H34.625V57.25H42.375V65H46.25ZM42.375 53.375H34.625V45.625H42.375V53.375Z" fill="#E3E0F6"/>
<path d="M18.982 15.98H16.33V23H13.795V15.98H11.13V13.77H18.982V15.98ZM21.1867 13.77H24.0207L26.9587 23H24.3847L23.8257 21.193H21.3687L20.8227 23H18.2357L21.1867 13.77ZM23.4227 19.503L22.6037 16.253L21.7457 19.503H23.4227ZM27.5826 20.517V18.307H31.6516V20.517H27.5826ZM39.6119 15.98H36.9599V23H34.4249V15.98H31.7599V13.77H39.6119V15.98ZM47.1132 20.79V23H40.5352V13.77H46.9962V15.98H43.0702V17.28H46.4242V19.334H43.0702V20.79H47.1132ZM48.149 20.517V18.307H52.218V20.517H48.149ZM60.1783 15.98H57.5263V23H54.9913V15.98H52.3263V13.77H60.1783V15.98ZM61.1016 23V13.77H63.6366V23H61.1016Z" fill="white"/>
</svg>
