<svg width="77" height="77" viewBox="0 0 77 77" fill="none" xmlns="http://www.w3.org/2000/svg">
<rect width="77" height="77" rx="8" fill="#6A5ACD"/>
<rect width="77" height="77" rx="8" fill="white" fill-opacity="0.15"/>
<path d="M10.383 16.786C10.383 16.786 10.3093 16.7427 10.162 16.656C10.0147 16.5693 9.81967 16.474 9.577 16.37C9.33433 16.2573 9.07 16.1577 8.784 16.071C8.498 15.9843 8.21633 15.941 7.939 15.941C7.72233 15.941 7.54467 15.9757 7.406 16.045C7.26733 16.1143 7.198 16.2313 7.198 16.396C7.198 16.552 7.26733 16.6777 7.406 16.773C7.54467 16.8683 7.73967 16.955 7.991 17.033C8.251 17.111 8.55867 17.2063 8.914 17.319C9.486 17.4923 9.98 17.6917 10.396 17.917C10.812 18.1423 11.1327 18.4327 11.358 18.788C11.5833 19.1347 11.696 19.5983 11.696 20.179C11.696 20.7337 11.5963 21.2017 11.397 21.583C11.1977 21.9557 10.929 22.2547 10.591 22.48C10.253 22.7053 9.876 22.87 9.46 22.974C9.044 23.0693 8.61933 23.117 8.186 23.117C7.744 23.117 7.28033 23.0737 6.795 22.987C6.31833 22.8917 5.85467 22.766 5.404 22.61C4.95333 22.4453 4.54167 22.2547 4.169 22.038L5.261 19.815C5.261 19.815 5.34767 19.867 5.521 19.971C5.69433 20.075 5.924 20.192 6.21 20.322C6.496 20.452 6.81233 20.569 7.159 20.673C7.51433 20.777 7.86967 20.829 8.225 20.829C8.50233 20.829 8.693 20.7943 8.797 20.725C8.90967 20.647 8.966 20.5473 8.966 20.426C8.966 20.244 8.87067 20.1053 8.68 20.01C8.48933 19.906 8.238 19.8107 7.926 19.724C7.62267 19.6287 7.28467 19.5203 6.912 19.399C6.37467 19.217 5.93267 19.0133 5.586 18.788C5.23933 18.554 4.98367 18.281 4.819 17.969C4.65433 17.6483 4.572 17.2627 4.572 16.812C4.572 16.1273 4.73233 15.5553 5.053 15.096C5.37367 14.6367 5.794 14.29 6.314 14.056C6.84267 13.8133 7.41033 13.692 8.017 13.692C8.46767 13.692 8.901 13.7483 9.317 13.861C9.74167 13.965 10.136 14.095 10.5 14.251C10.8727 14.407 11.1977 14.5543 11.475 14.693L10.383 16.786ZM16.8464 23.078C16.1098 23.078 15.4771 22.9567 14.9484 22.714C14.4198 22.4713 13.9864 22.1377 13.6484 21.713C13.3191 21.2883 13.0764 20.803 12.9204 20.257C12.7644 19.7023 12.6864 19.1217 12.6864 18.515V13.77H15.2214V18.515C15.2214 18.8183 15.2518 19.1087 15.3124 19.386C15.3731 19.6633 15.4684 19.9103 15.5984 20.127C15.7284 20.3437 15.8931 20.517 16.0924 20.647C16.3004 20.7683 16.5518 20.829 16.8464 20.829C17.1498 20.829 17.4054 20.7683 17.6134 20.647C17.8214 20.517 17.9861 20.3437 18.1074 20.127C18.2374 19.9017 18.3328 19.6503 18.3934 19.373C18.4541 19.0957 18.4844 18.8097 18.4844 18.515V13.77H21.0194V18.515C21.0194 19.1563 20.9328 19.7543 20.7594 20.309C20.5948 20.8637 20.3434 21.349 20.0054 21.765C19.6674 22.181 19.2341 22.506 18.7054 22.74C18.1854 22.9653 17.5658 23.078 16.8464 23.078ZM22.4776 23V13.77H26.4556C26.9062 13.77 27.3222 13.861 27.7036 14.043C28.0849 14.225 28.4142 14.472 28.6916 14.784C28.9689 15.0873 29.1812 15.4297 29.3286 15.811C29.4846 16.1923 29.5626 16.578 29.5626 16.968C29.5626 17.514 29.4326 18.0297 29.1726 18.515C28.9212 19.0003 28.5659 19.399 28.1066 19.711C27.6559 20.0143 27.1272 20.166 26.5206 20.166H25.0126V23H22.4776ZM25.0126 17.956H26.3516C26.4556 17.956 26.5552 17.9257 26.6506 17.865C26.7459 17.8043 26.8239 17.7003 26.8846 17.553C26.9539 17.4057 26.9886 17.2107 26.9886 16.968C26.9886 16.708 26.9496 16.5087 26.8716 16.37C26.8022 16.2227 26.7112 16.123 26.5986 16.071C26.4946 16.0103 26.3906 15.98 26.2866 15.98H25.0126V17.956ZM37.1552 20.79V23H30.5772V13.77H37.0382V15.98H33.1122V17.28H36.4662V19.334H33.1122V20.79H37.1552ZM38.334 23V13.77H42.572C43.0227 13.77 43.4387 13.861 43.82 14.043C44.2013 14.225 44.5307 14.472 44.808 14.784C45.0853 15.0873 45.2977 15.4297 45.445 15.811C45.601 16.1923 45.679 16.578 45.679 16.968C45.679 17.3233 45.627 17.6657 45.523 17.995C45.419 18.3243 45.2673 18.6277 45.068 18.905C44.8687 19.1737 44.6303 19.4077 44.353 19.607L46.303 23H43.521L41.896 20.166H40.869V23H38.334ZM40.869 17.956H42.468C42.572 17.956 42.6717 17.917 42.767 17.839C42.8623 17.761 42.9403 17.6483 43.001 17.501C43.0703 17.3537 43.105 17.176 43.105 16.968C43.105 16.7513 43.066 16.5737 42.988 16.435C42.9187 16.2877 42.8277 16.175 42.715 16.097C42.611 16.019 42.507 15.98 42.403 15.98H40.869V17.956ZM33.3898 35.504C33.4418 35.5387 33.6064 35.6123 33.8838 35.725C34.1611 35.8377 34.4861 35.894 34.8588 35.894C35.1274 35.894 35.3441 35.8507 35.5088 35.764C35.6734 35.6687 35.7948 35.5257 35.8728 35.335C35.9594 35.1443 36.0158 34.8973 36.0418 34.594C36.0764 34.282 36.0938 33.905 36.0938 33.463V28.77H38.6288V33.463C38.6288 34.165 38.5854 34.802 38.4988 35.374C38.4208 35.946 38.2561 36.44 38.0048 36.856C37.7534 37.272 37.3764 37.5927 36.8738 37.818C36.3711 38.0347 35.6994 38.143 34.8588 38.143C34.4601 38.143 34.0961 38.0953 33.7668 38C33.4374 37.9047 33.1341 37.7617 32.8568 37.571L33.3898 35.504ZM44.1414 38.078C43.4047 38.078 42.772 37.9567 42.2434 37.714C41.7147 37.4713 41.2814 37.1377 40.9434 36.713C40.614 36.2883 40.3714 35.803 40.2154 35.257C40.0594 34.7023 39.9814 34.1217 39.9814 33.515V28.77H42.5164V33.515C42.5164 33.8183 42.5467 34.1087 42.6074 34.386C42.668 34.6633 42.7634 34.9103 42.8934 35.127C43.0234 35.3437 43.188 35.517 43.3874 35.647C43.5954 35.7683 43.8467 35.829 44.1414 35.829C44.4447 35.829 44.7004 35.7683 44.9084 35.647C45.1164 35.517 45.281 35.3437 45.4024 35.127C45.5324 34.9017 45.6277 34.6503 45.6884 34.373C45.749 34.0957 45.7794 33.8097 45.7794 33.515V28.77H48.3144V33.515C48.3144 34.1563 48.2277 34.7543 48.0544 35.309C47.8897 35.8637 47.6384 36.349 47.3004 36.765C46.9624 37.181 46.529 37.506 46.0004 37.74C45.4804 37.9653 44.8607 38.078 44.1414 38.078ZM56.3505 35.79V38H49.7725V28.77H56.2335V30.98H52.3075V32.28H55.6615V34.334H52.3075V35.79H56.3505ZM61.3807 38.065C60.7827 38.065 60.2107 37.961 59.6647 37.753C59.1273 37.5363 58.6507 37.2243 58.2347 36.817C57.8187 36.401 57.4893 35.9027 57.2467 35.322C57.0127 34.7327 56.8957 34.061 56.8957 33.307C56.8957 32.657 57.017 32.0547 57.2597 31.5C57.5023 30.9453 57.836 30.46 58.2607 30.044C58.694 29.6193 59.1967 29.29 59.7687 29.056C60.3407 28.822 60.9603 28.705 61.6277 28.705C62.4597 28.705 63.2137 28.887 63.8897 29.251C64.5657 29.6063 65.0683 30.096 65.3977 30.72L63.5127 32.163C63.3307 31.799 63.0577 31.5087 62.6937 31.292C62.3297 31.0667 61.944 30.954 61.5367 30.954C61.2333 30.954 60.956 31.0147 60.7047 31.136C60.4533 31.2573 60.2323 31.4263 60.0417 31.643C59.8597 31.8597 59.7167 32.1197 59.6127 32.423C59.5173 32.7177 59.4697 33.0427 59.4697 33.398C59.4697 33.762 59.5217 34.0913 59.6257 34.386C59.7297 34.6807 59.8727 34.9363 60.0547 35.153C60.2453 35.361 60.4707 35.5257 60.7307 35.647C60.9907 35.7597 61.281 35.816 61.6017 35.816C62.009 35.816 62.399 35.7163 62.7717 35.517C63.1443 35.309 63.4823 35.0187 63.7857 34.646V37.116C63.0923 37.7487 62.2907 38.065 61.3807 38.065ZM63.6557 34.906H61.9527V33.086H65.7487V38H63.6557V34.906ZM71.16 38.078C70.458 38.078 69.821 37.948 69.249 37.688C68.677 37.4193 68.183 37.064 67.767 36.622C67.3597 36.1713 67.0434 35.6687 66.818 35.114C66.6014 34.5507 66.493 33.97 66.493 33.372C66.493 32.7567 66.61 32.1717 66.844 31.617C67.078 31.0623 67.403 30.5683 67.819 30.135C68.2437 29.693 68.742 29.3463 69.314 29.095C69.8947 28.8437 70.5274 28.718 71.212 28.718C71.914 28.718 72.551 28.8523 73.123 29.121C73.695 29.381 74.1847 29.7363 74.592 30.187C74.9994 30.6377 75.3114 31.1447 75.528 31.708C75.7534 32.2627 75.866 32.8347 75.866 33.424C75.866 34.0307 75.749 34.6113 75.515 35.166C75.2897 35.7207 74.9647 36.219 74.54 36.661C74.124 37.0943 73.63 37.441 73.058 37.701C72.486 37.9523 71.8534 38.078 71.16 38.078ZM69.067 33.398C69.067 33.71 69.1104 34.0133 69.197 34.308C69.2837 34.594 69.4137 34.854 69.587 35.088C69.7604 35.3133 69.977 35.4953 70.237 35.634C70.5057 35.764 70.822 35.829 71.186 35.829C71.55 35.829 71.8664 35.7597 72.135 35.621C72.4037 35.4823 72.6204 35.296 72.785 35.062C72.9584 34.8193 73.084 34.555 73.162 34.269C73.2487 33.9743 73.292 33.6753 73.292 33.372C73.292 33.06 73.2487 32.761 73.162 32.475C73.0754 32.189 72.9454 31.9333 72.772 31.708C72.5987 31.474 72.3777 31.292 72.109 31.162C71.8404 31.032 71.5284 30.967 71.173 30.967C70.809 30.967 70.4927 31.0363 70.224 31.175C69.964 31.3137 69.7474 31.5 69.574 31.734C69.4007 31.9593 69.2707 32.2193 69.184 32.514C69.106 32.8 69.067 33.0947 69.067 33.398Z" fill="white"/>
<path d="M16.0506 50.5526C17.2491 48.3579 19.5526 47.0632 20.8911 45.1211C22.3075 43.0842 21.5137 39.2789 17.4981 39.2789C14.8677 39.2789 13.5759 41.3 13.0312 42.9737L9 41.2526C10.1051 37.8895 13.109 35 17.4825 35C21.1402 35 23.646 36.6895 24.9223 38.8053C26.0118 40.6211 26.6499 44.0158 24.969 46.5421C23.1013 49.3368 21.3114 50.1895 20.3464 51.9895C19.9573 52.7158 19.8016 53.1895 19.8016 55.5263H15.3035C15.288 54.2947 15.1012 52.2895 16.0506 50.5526ZM20.611 61.8421C20.611 63.5789 19.2102 65 17.4981 65C15.786 65 14.3852 63.5789 14.3852 61.8421C14.3852 60.1053 15.786 58.6842 17.4981 58.6842C19.2102 58.6842 20.611 60.1053 20.611 61.8421Z" fill="#E3E0F6"/>
</svg>
