<svg width="77" height="77" viewBox="0 0 77 77" fill="none" xmlns="http://www.w3.org/2000/svg">
<rect width="77" height="77" rx="8" fill="#6A5ACD"/>
<rect width="77" height="77" rx="8" fill="white" fill-opacity="0.15"/>
<path d="M11.371 20.79V23H4.793V13.77H11.254V15.98H7.328V17.28H10.682V19.334H7.328V20.79H11.371ZM12.5498 23V13.77H15.0848V20.79H19.2708V23H12.5498ZM55.5728 68V63.138L54.0258 66.557H52.6738L51.1268 63.138V68H48.5918V58.77H51.3608L53.3498 63.112L55.3518 58.77H58.1078V68H55.5728ZM59.6875 68V58.77H62.2225V68H59.6875ZM63.8135 68V58.77H66.3485V65.79H70.5345V68H63.8135Z" fill="white"/>
<path d="M37.874 44.54V51H20.28V44.54H25.676V36.978C25.448 37.282 25.0933 37.586 24.612 37.89C24.1307 38.1687 23.586 38.4347 22.978 38.688C22.3953 38.9413 21.8 39.144 21.192 39.296C20.584 39.448 20.0393 39.524 19.558 39.524V32.912C19.9127 32.912 20.394 32.7853 21.002 32.532C21.6353 32.2787 22.2813 31.962 22.94 31.582C23.5987 31.1767 24.1813 30.7713 24.688 30.366C25.1947 29.9607 25.524 29.606 25.676 29.302H33.048V44.54H37.874ZM60.5173 39.866C60.5173 42.0953 60.0739 44.084 59.1873 45.832C58.3006 47.5547 57.0973 48.91 55.5773 49.898C54.0826 50.886 52.3726 51.38 50.4473 51.38C48.5473 51.38 46.8373 50.886 45.3173 49.898C43.7973 48.91 42.5939 47.5547 41.7073 45.832C40.8206 44.084 40.3773 42.0953 40.3773 39.866C40.3773 37.6367 40.8206 35.6607 41.7073 33.938C42.5939 32.19 43.7973 30.822 45.3173 29.834C46.8373 28.8207 48.5599 28.314 50.4853 28.314C52.3853 28.314 54.0826 28.8207 55.5773 29.834C57.0973 30.822 58.3006 32.19 59.1873 33.938C60.0739 35.6607 60.5173 37.6367 60.5173 39.866ZM53.2213 39.866C53.2213 38.878 53.0946 38.0167 52.8413 37.282C52.6133 36.5473 52.2839 35.9773 51.8533 35.572C51.4479 35.1413 50.9793 34.926 50.4473 34.926C49.8899 34.926 49.3959 35.1413 48.9653 35.572C48.5346 35.9773 48.1926 36.5473 47.9393 37.282C47.7113 38.0167 47.5973 38.878 47.5973 39.866C47.5973 40.854 47.7113 41.7153 47.9393 42.45C48.1926 43.1847 48.5346 43.7547 48.9653 44.16C49.3959 44.5653 49.8899 44.768 50.4473 44.768C50.9793 44.768 51.4479 44.5653 51.8533 44.16C52.2839 43.7547 52.6133 43.1847 52.8413 42.45C53.0946 41.7153 53.2213 40.854 53.2213 39.866Z" fill="white"/>
</svg>
