<svg width="20" height="20" viewBox="0 0 20 20" fill="none" xmlns="http://www.w3.org/2000/svg">
<path d="M10.0002 6.10352e-05C4.57924 6.10352e-05 0.000244141 4.57906 0.000244141 10.0001C0.000244141 15.4211 4.57924 20.0001 10.0002 20.0001C15.4212 20.0001 20.0002 15.4211 20.0002 10.0001C20.0002 4.57906 15.4212 6.10352e-05 10.0002 6.10352e-05ZM10.0002 5.00006C11.7272 5.00006 13.0002 6.27206 13.0002 8.00006C13.0002 9.72806 11.7272 11.0001 10.0002 11.0001C8.27424 11.0001 7.00024 9.72806 7.00024 8.00006C7.00024 6.27206 8.27424 5.00006 10.0002 5.00006ZM4.89424 14.7721C5.79124 13.4521 7.28724 12.5721 9.00024 12.5721H11.0002C12.7142 12.5721 14.2092 13.4521 15.1062 14.7721C13.8282 16.1401 12.0152 17.0001 10.0002 17.0001C7.98524 17.0001 6.17224 16.1401 4.89424 14.7721Z" fill="#979191"/>
</svg>
