<svg width="225" height="200" viewBox="0 0 225 200" fill="none" xmlns="http://www.w3.org/2000/svg">
<path d="M215.625 25H175V9.375C175 4.17969 170.82 0 165.625 0H59.375C54.1797 0 50 4.17969 50 9.375V25H9.375C4.17969 25 0 29.1797 0 34.375V56.25C0 70.1953 8.78906 84.5312 24.1797 95.5859C36.4844 104.453 51.4453 110.078 67.1484 111.875C79.4141 132.227 93.75 140.625 93.75 140.625V168.75H75C61.2109 168.75 50 176.836 50 190.625V195.312C50 197.891 52.1094 200 54.6875 200H170.312C172.891 200 175 197.891 175 195.312V190.625C175 176.836 163.789 168.75 150 168.75H131.25V140.625C131.25 140.625 145.586 132.227 157.852 111.875C173.594 110.078 188.555 104.453 200.82 95.5859C216.172 84.5312 225 70.1953 225 56.25V34.375C225 29.1797 220.82 25 215.625 25ZM38.7891 75.3125C29.2578 68.4375 25 60.7813 25 56.25V50H50.0781C50.4687 62.7344 52.3438 73.9062 55.0781 83.6719C49.1797 81.6406 43.6719 78.8281 38.7891 75.3125V75.3125ZM200 56.25C200 62.5391 193.086 70.3516 186.211 75.3125C181.328 78.8281 175.781 81.6406 169.883 83.6719C172.617 73.9062 174.492 62.7344 174.883 50H200V56.25Z" fill="#979191"/>
</svg>
